<svg width="32" height="32" viewBox="0 0 32 32" fill="none" xmlns="http://www.w3.org/2000/svg">
<path d="M23 14V17C23 18.8565 22.2625 20.637 20.9497 21.9497C19.637 23.2625 17.8565 24 16 24C14.1435 24 12.363 23.2625 11.0503 21.9497C9.7375 20.637 9 18.8565 9 17V14H7V17C7.00105 19.2131 7.81745 21.3482 9.29322 22.9973C10.769 24.6465 12.8006 25.6941 15 25.94V28H11V30H21V28H17V25.94C19.1994 25.6941 21.231 24.6465 22.7068 22.9973C24.1825 21.3482 24.9989 19.2131 25 17V14H23Z" fill="white"/>
<path d="M16 22C17.3261 22 18.5979 21.4732 19.5355 20.5355C20.4732 19.5979 21 18.3261 21 17V7C21 5.67392 20.4732 4.40215 19.5355 3.46447C18.5979 2.52678 17.3261 2 16 2C14.6739 2 13.4021 2.52678 12.4645 3.46447C11.5268 4.40215 11 5.67392 11 7V17C11 18.3261 11.5268 19.5979 12.4645 20.5355C13.4021 21.4732 14.6739 22 16 22Z" fill="white"/>
</svg>
